<?xml version="1.0" encoding="utf-8"?>
<!-- Generator: Adobe Illustrator 19.0.0, SVG Export Plug-In . SVG Version: 6.00 Build 0)  -->
<svg version="1.1" id="Vrstva_1" xmlns="http://www.w3.org/2000/svg" xmlns:xlink="http://www.w3.org/1999/xlink" x="0px" y="0px"
	 viewBox="0 0 44 34" style="enable-background:new 0 0 44 34;" xml:space="preserve">
<style type="text/css">
	.st0{fill:#FFFFFF;}
</style>
<g id="Mails">
	<g id="XMLID_69_">
		<path id="XMLID_70_" class="st0" d="M32,8H4c-2.2,0-4,1.8-4,4v18c0,2.2,1.8,4,4,4h28c2.2,0,4-1.8,4-4V12C36,9.8,34.2,8,32,8z
			 M4,10h28c0.5,0,0.9,0.2,1.3,0.5L19.4,24.4C19,24.8,18.5,25,18,25c-0.5,0-1-0.2-1.4-0.6L2.7,10.5C3.1,10.2,3.5,10,4,10z M2,12.6
			l8.4,8.4L2,29.4V12.6z M32,32H4c-0.5,0-0.9-0.2-1.3-0.5l9.1-9.1l3.4,3.4C16,26.6,17,27,18,27c1,0,2-0.4,2.8-1.1l3.4-3.4l9.1,9.1
			C32.9,31.8,32.5,32,32,32z M34,29.4L25.6,21l8.4-8.4V29.4z M40,0H12C9.8,0,8,1.8,8,4v1c0,0.6,0.4,1,1,1c0.6,0,1-0.4,1-1V4
			c0-1.1,0.9-2,2-2h28c1.1,0,2,0.9,2,2v18c0,1.1-0.9,2-2,2h-1c-0.6,0-1,0.4-1,1c0,0.6,0.4,1,1,1h1c2.2,0,4-1.8,4-4V4
			C44,1.8,42.2,0,40,0z"/>
	</g>
</g>
</svg>
