<?xml version="1.0" encoding="utf-8"?>
<!-- Generator: Adobe Illustrator 19.0.0, SVG Export Plug-In . SVG Version: 6.00 Build 0)  -->
<svg version="1.1" id="Vrstva_1" xmlns="http://www.w3.org/2000/svg" xmlns:xlink="http://www.w3.org/1999/xlink" x="0px" y="0px"
	 viewBox="0 0 44 32" style="enable-background:new 0 0 44 32;" xml:space="preserve">
<style type="text/css">
	.st0{fill:#FFFFFF;}
</style>
<g id="Mail">
	<g id="XMLID_63_">
		<path id="XMLID_64_" class="st0" d="M40,0H4C1.8,0,0,1.8,0,4v24c0,2.2,1.8,4,4,4h36c2.2,0,4-1.8,4-4V4C44,1.8,42.2,0,40,0z M4,2
			h36c0.2,0,0.5,0,0.7,0.1L23.4,19.4C23,19.8,22.5,20,22,20c-0.5,0-1-0.2-1.4-0.6L3.3,2.1C3.5,2,3.8,2,4,2z M2,28V4
			c0-0.1,0-0.2,0-0.3L14.4,16L2,28.3C2,28.2,2,28.1,2,28z M40,30H4c-0.2,0-0.5,0-0.7-0.1l12.5-12.5l3.4,3.4C20,21.6,21,22,22,22
			c1,0,2-0.4,2.8-1.1l3.4-3.4l12.5,12.5C40.5,30,40.2,30,40,30z M42,28c0,0.1,0,0.2,0,0.3L29.6,16L42,3.7c0,0.1,0,0.2,0,0.3V28z"/>
	</g>
</g>
</svg>
