<?xml version="1.0" encoding="utf-8"?>
<!-- Generator: Adobe Illustrator 19.0.0, SVG Export Plug-In . SVG Version: 6.00 Build 0)  -->
<svg version="1.1" id="Vrstva_1" xmlns="http://www.w3.org/2000/svg" xmlns:xlink="http://www.w3.org/1999/xlink" x="0px" y="0px"
	 viewBox="0 0 44 44" style="enable-background:new 0 0 44 44;" xml:space="preserve">
<style type="text/css">
	.st0{fill:#FFFFFF;}
</style>
<g id="Phone_2_x40_2x.png">
	<g id="XMLID_63_">
		<path id="XMLID_64_" class="st0" d="M44,35c0-0.8-0.3-1.6-0.9-2.1c-0.2-0.2-0.3-0.3-0.5-0.4l-8.5-6.6C33.6,25.3,32.8,25,32,25
			c-0.7,0-1.3,0.2-1.8,0.6L27.8,28l0,0c-0.4,0.4-0.9,0.7-1.5,0.7c-0.7,0-1.3-0.3-1.6-0.9c0,0,0,0,0,0.1c-3.3-2.4-6.2-5.2-8.5-8.5
			c0,0,0,0,0.1,0c-0.5-0.4-0.9-1-0.9-1.7c0-0.6,0.3-1.2,0.7-1.5l0,0l2.4-2.3c0.4-0.5,0.6-1.1,0.6-1.8c0-0.8-0.3-1.6-0.9-2.1
			l-6.6-8.5c-0.1-0.2-0.3-0.4-0.4-0.5C10.6,0.3,9.8,0,9,0C5,0,0,4.7,0,10.5c0,1.6,0.4,3.1,1,4.5l0,0c6,12,16,22,28,28l0,0
			c1.4,0.6,2.9,1,4.5,1C39.3,44,44,39,44,35C44,35,44,35,44,35L44,35z M33.5,42c-1.3,0-2.5-0.3-3.6-0.8c-0.1-0.1-0.2-0.1-0.3-0.1
			C18.2,35.3,8.8,25.8,2.9,14.5c0-0.1-0.1-0.2-0.1-0.3C2.3,13,2,11.8,2,10.5C2,5.7,6.2,2,9,2c0.4,0,0.6,0.2,0.7,0.3
			c0,0,0.1,0.1,0.1,0.2c0,0.1,0.1,0.1,0.1,0.2l6.6,8.5c0.1,0.1,0.1,0.1,0.2,0.2c0.1,0.1,0.3,0.3,0.3,0.7c0,0.2,0,0.3-0.1,0.5
			l-2.2,2.2c0,0,0,0,0,0c-0.8,0.8-1.3,1.8-1.3,2.9c0,1,0.4,2,1.1,2.8c0,0,0.1,0.1,0.1,0.1c2.5,3.4,5.5,6.4,9,8.9c0,0,0.1,0,0.1,0.1
			c0.7,0.7,1.7,1.1,2.8,1.1c1,0,2.1-0.4,2.8-1.2c0,0,0.1-0.1,0.1-0.1l2.2-2.3C31.6,27,31.8,27,32,27c0.4,0,0.6,0.2,0.7,0.3
			c0.1,0.1,0.1,0.1,0.2,0.2l8.5,6.6c0.1,0,0.1,0.1,0.2,0.1c0.1,0.1,0.2,0.1,0.2,0.1c0.1,0.1,0.3,0.3,0.3,0.7c0,0.1,0,0.1,0,0.2
			C41.8,37.9,38.2,42,33.5,42z M24,12c4.4,0,8,3.6,8,8c0,0.6,0.4,1,1,1c0.6,0,1-0.4,1-1c0-5.5-4.5-10-10-10c-0.6,0-1,0.4-1,1
			C23,11.6,23.5,12,24,12z M24,2c9.9,0,18,8.1,18,18c0,0.6,0.4,1,1,1c0.6,0,1-0.4,1-1c0-11-9-20-20-20c-0.6,0-1,0.4-1,1
			C23,1.6,23.5,2,24,2z M24,22c1.1,0,2-0.9,2-2c0-1.1-0.9-2-2-2s-2,0.9-2,2C22,21.1,22.9,22,24,22z"/>
	</g>
</g>
</svg>
